<svg xmlns="http://www.w3.org/2000/svg" width="1024" height="768"><path d="m573 211 2.16.73c17.198 5.97 33.51 15.107 47.84 26.27l2.664 1.992c14.8 11.492 27.917 25.452 38.336 41.008l1.195 1.78c11.35 17.226 19.819 36.227 24.805 56.22.315 1.252.63 2.503.953 3.793A195 195 0 0 1 693 353l.621 3.465c6.861 45.094-4.068 95.09-30.808 132.285A314 314 0 0 1 658 495l-1.988 2.656C631.772 528.91 597.904 550.44 560 561l-2.595.765c-46.618 13.424-96.22 3.638-137.956-19.19-6.532-3.696-12.518-7.992-18.449-12.575l-2.672-1.996C367.093 503.726 345.564 469.92 335 432l-.765-2.595c-13.394-46.516-3.65-95.743 18.933-137.44C356.93 285.228 361.264 279.08 366 273l1.992-2.664c28.909-37.232 73.146-62.421 119.883-68.586 28.95-3.255 57.625-.105 85.125 9.25" fill="#050505"/><path d="m542 260 2.797.586c19.319 4.508 36.202 14.76 51.203 27.414.634.512 1.268 1.024 1.922 1.55 21.91 17.985 37.113 48.35 40.88 76.22 3.264 36.668-5.292 71.477-28.97 100.058L608 468c-.512.634-1.024 1.268-1.55 1.922-10.919 13.302-26.104 23.19-41.632 30.25a269 269 0 0 0-4.861 2.289c-28.047 12.766-64.108 12.13-92.555 1.52-14.706-5.834-27.32-13.76-39.402-23.981l-2.074-1.668c-22.745-18.813-37.327-49.88-40.73-78.884-.442-5.515-.423-11.043-.446-16.573l-.062-3.727c-.037-8.75 1.18-16.675 3.312-25.148l.675-2.89c4.56-19.22 14.435-36.335 27.325-51.11l1.734-2.137c14.672-17.78 37.36-30.37 59.266-36.863l1.99-.594c20.153-5.764 42.72-5.363 63.01-.406" fill="#020202"/><path d="m573 211 2.16.73c17.198 5.97 33.51 15.107 47.84 26.27l2.664 1.992c14.8 11.492 27.917 25.452 38.336 41.008l1.195 1.78c11.35 17.226 19.819 36.227 24.805 56.22.315 1.252.63 2.503.953 3.793A195 195 0 0 1 693 353l.621 3.465c6.861 45.094-4.068 95.09-30.808 132.285A314 314 0 0 1 658 495l-1.988 2.656C631.772 528.91 597.904 550.44 560 561l-2.595.765c-46.618 13.424-96.22 3.638-137.956-19.19-6.532-3.696-12.518-7.992-18.449-12.575l-2.672-1.996C367.093 503.726 345.564 469.92 335 432l-.765-2.595c-13.394-46.516-3.65-95.743 18.933-137.44C356.93 285.228 361.264 279.08 366 273l1.992-2.664c28.909-37.232 73.146-62.421 119.883-68.586 28.95-3.255 57.625-.105 85.125 9.25m-180 57-1.448 1.436c-29.117 29.287-45.735 71.607-45.865 112.689.459 48.255 19.186 89.618 53.122 123.695 31.147 29.668 74.337 45.442 117.109 44.461 46.903-1.798 88.274-21.592 120.207-55.593C666.899 459.83 680.014 416.09 678 370c-2.985-40-22.006-76.849-50-105l-1.436-1.448c-31.554-31.37-75.423-45.815-119.226-45.801-43.405.521-83.872 19.952-114.338 50.249" fill="#FBFBFB"/><path d="m542 260 2.797.586c19.319 4.508 36.202 14.76 51.203 27.414.634.512 1.268 1.024 1.922 1.55 21.91 17.985 37.113 48.35 40.88 76.22 3.264 36.668-5.292 71.477-28.97 100.058L608 468c-.512.634-1.024 1.268-1.55 1.922-10.919 13.302-26.104 23.19-41.632 30.25a269 269 0 0 0-4.861 2.289c-28.047 12.766-64.108 12.13-92.555 1.52-14.706-5.834-27.32-13.76-39.402-23.981l-2.074-1.668c-22.745-18.813-37.327-49.88-40.73-78.884-.442-5.515-.423-11.043-.446-16.573l-.062-3.727c-.037-8.75 1.18-16.675 3.312-25.148l.675-2.89c4.56-19.22 14.435-36.335 27.325-51.11l1.734-2.137c14.672-17.78 37.36-30.37 59.266-36.863l1.99-.594c20.153-5.764 42.72-5.363 63.01-.406m-115 53c-19.158 24.335-27.753 53.34-24.79 84.196 3.579 28.563 18.234 55.595 41 73.359 24.454 18.4 53.49 26.804 84.044 22.976 29.593-4.937 56.085-19.725 73.871-44.219 9.271-13.278 14.91-26.607 18.875-42.312l.813-3.203c5.591-27.183-1.29-56.579-15.813-79.797-17.485-25.804-42.314-41.19-72.184-48.812C492.904 267.555 453.698 283.21 427 313" fill="#FBFBFB"/><path d="M511 302h2l1.358 2.38 7.278 12.752 1.061 1.86 1.056 1.86a232 232 0 0 0 2.172 3.7c1.782 3.001 3.158 5.685 4.323 9.004 1.499 3.84 2.53 5.833 5.752 8.444 7.708 2.138 16.025 1.446 23.938 1.25q3.348-.018 6.697-.02c5.457-.014 10.91-.096 16.365-.23-1.493 4.034-3.41 7.642-5.555 11.367l-1.039 1.812q-1.637 2.85-3.281 5.696l-2.184 3.8a5479 5479 0 0 1-4.05 7.04L565 376l-1.198 1.759c-2.022 3.088-2.911 4.637-2.242 8.336 1.417 2.859 2.863 5.641 4.487 8.39l1.812 3.085 1.891 3.18 1.844 3.133c2.374 4.029 4.754 8.053 7.197 12.04l1.662 2.718 1.49 2.407C583 423 583 423 583 425l-1.677-.15c-24.322-3.079-24.322-3.079-47.326 2.332-6.922 5.85-9.908 14.874-12.684 23.219A63.3 63.3 0 0 1 513 466h-2l-1.358-2.38-7.278-12.752-1.061-1.86-1.056-1.86a232 232 0 0 0-2.172-3.7c-1.782-3.001-3.158-5.685-4.323-9.004-1.499-3.84-2.53-5.833-5.752-8.444-7.708-2.138-16.025-1.446-23.937-1.25q-3.349.018-6.698.02c-5.457.014-10.91.096-16.365.23 1.493-4.034 3.41-7.642 5.555-11.367l1.039-1.812q1.637-2.85 3.281-5.696l2.184-3.8q2.022-3.522 4.05-7.04L459 392l1.198-1.759c2.022-3.088 2.911-4.637 2.242-8.336-1.417-2.859-2.863-5.641-4.487-8.39l-1.812-3.085-1.891-3.18-1.844-3.133c-2.374-4.029-4.754-8.053-7.197-12.04l-1.662-2.718-1.49-2.407C441 345 441 345 441 343l1.677.15c24.322 3.079 24.322 3.079 47.326-2.332 6.922-5.85 9.908-14.874 12.685-23.219A63.3 63.3 0 0 1 511 302" fill="#FDFDFD"/><path d="M648.25 312.5c4.367 2.468 7.282 6.182 9.75 10.5v2c-7.196 2.014-13.36 1.566-20-2-4.497-2.665-7.633-4.684-9-10 5.942-3.17 13.118-3.16 19.25-.5" fill="#F4F4F4"/><path d="M598 253c2.895 1.092 5.31 2.435 8 4-.195 1.832-.195 1.832-1 4-2.18 1.45-2.18 1.45-4.875 2.688l-2.68 1.261c-5.12 2.2-10.138 3.12-15.523 1.38-1.667-.72-3.299-1.517-4.922-2.329.66-2.885 1.475-4.598 3.844-6.41 5.963-3.706 10.036-5.459 17.156-4.59" fill="#F3F3F3"/><path d="M355 402c7.36-.626 13.037 1.576 18.75 6.25C381 417.111 381 417.111 381 421c-6.711.555-11.723.547-17.281-3.52-5.284-4.551-7.422-8.64-8.719-15.48m3-56c4.975.452 8.421 2.658 12 6 3.767 4.955 6.154 9.368 6.063 15.688l-.028 2.449L376 372c-5.709-1.083-10.17-2.353-14-7-3.924-6.167-4.54-11.816-4-19m89-105c1.804 7.441 1.379 14.125-2 21-2.094 2.917-4.306 5.618-7 8h-2c-2.855-5.71-4.33-10.797-2.344-17.074C436.104 247.387 440.488 241 447 241" fill="#F4F4F4"/><path d="M506 520c-.935 6.28-2.149 10.562-7 15-5.986 3.73-11.039 4.442-18 4 .817-6.948 4.973-11.485 10.21-15.742 4.706-3.308 9.182-3.482 14.79-3.258m-48-11c-1.615 5.652-5.294 8.422-10.25 11.313-5.695 1.423-10.938 1.437-16.375-.813L429 518c1.964-4.998 5.565-7.196 10.125-9.75 5.945-2.391 13.31-2.522 18.875.75m182-174c7.857-.656 13.792-.758 20.188 4.215 2.79 2.75 4.27 5.167 5.812 8.785v4c-7.566.61-12.678-.725-19-5-4.095-3.64-6.166-6.528-7-12" fill="#F5F5F5"/><path d="M399 273h2c5.107 7.059 6.196 13.392 5 22a45.2 45.2 0 0 1-4 9c-4.795-3.516-7.21-6.13-9-12-.939-7.158 1.36-11.879 5-18z" fill="#F4F4F4"/><path d="M420 255c3 1 3 1 4.168 3.2 2.315 7.793 1.313 15.58-2.168 22.8-1.687 2.5-1.687 2.5-3 4-2.896-.999-3.973-1.96-5.75-4.5-2.19-6.13-2.31-11.923.5-17.875 1.698-2.996 3.619-5.37 6.25-7.625m-32 199c4.886 1.66 9.699 3.91 13 8v3c-5.049 3.107-9.218 3.874-15 3-5.958-1.92-9.85-5.434-14-10l1-3c4.46-2.23 10.163-1.495 15-1" fill="#F6F6F6"/><path d="M648 384c5.44-.088 9.149.621 13.375 4.188 3.8 3.74 6.436 6.896 6.793 12.41A122 122 0 0 1 668 408c-6.951-1.655-11.776-4.113-16-10-2.453-4.717-4-8.653-4-14" fill="#F7F7F7"/><path d="M501 227c-.443 8.269-3.295 13.733-9.375 19.375-3.375 2.73-6.399 3.763-10.625 4.625-.505-6.973-.232-11.32 4-17 4.991-5.018 8.892-7.323 16-7m76 277c2.644 4.612 2.61 8.802 2 14-1.676 6.025-5.12 9.377-10.098 12.969C567 532 567 532 564 532c-.75-9.642-.312-16.395 6-24 4.19-4 4.19-4 7-4" fill="#F6F6F6"/><path d="M361 429c8.155-.46 14.793.383 21.813 4.75 2.773 2.852 4.355 5.722 6.187 9.25-4.6 2.627-8.815 2.756-14 2-5.62-2.27-9.607-6.065-13-11-.812-2.875-.812-2.875-1-5m7-110c6.067 3.467 10.755 8.265 13 15 .07 2.228.085 4.458.063 6.688l-.028 3.574L381 347c-4.342-.466-6.726-1.06-9.75-4.25l-1.734-1.766c-3.041-3.98-3.794-7.6-3.766-12.546l-.016-2.817c.272-2.676.905-4.325 2.266-6.621" fill="#F7F7F7"/><path d="M481 516c-.248 5.081-1.905 7.845-5.273 11.453-4.978 4.46-10.124 4.869-16.493 4.75C457 532 457 532 454 531c1.818-5.785 5.894-9.846 11-13 5.436-2.025 10.292-2.233 16-2m74-1c.37 6.045.175 10.642-3 16-3.418 3.85-6.753 7.18-12 7.938l-3 .062c-.66-7.12 1.012-12.058 5-18 7.267-7.72 7.267-7.72 13-6m84-83c4.198.484 7.18 3.022 10 6 3.03 4.06 3.382 7.043 3.313 12.063l-.012 3.66c-.278 3.026-.711 4.737-2.301 7.277-4.772-1.767-7.667-5.487-9.984-9.855-2.666-6.299-2.85-12.58-1.016-19.145" fill="#F8F8F8"/><path d="M646 359c6.153-.64 10.176-.02 15.277 3.57 3.424 2.842 6.196 6.23 7.723 10.43.125 3.25.125 3.25 0 6-5.472.57-8.533-.334-13.074-3.437-4.225-3.428-7.844-7.494-9.926-12.563zm0 49c5.645 1.328 9.646 2.746 13.195 7.652 3.261 5.576 3.456 11.005 2.805 17.348l-1 2c-6.516-2.048-10.575-6.92-14.062-12.598-1.809-4.634-1.304-9.517-.938-14.402m-8-116c2.497 1.836 4.903 3.712 7 6v2c-5.55 3.504-12.706 2.549-19 2-4.494-1.341-7.778-3.613-11-7 1-3 1-3 4.063-4.687 6.822-2.637 12.532-1.807 18.937 1.687M530 519c.45 6.292-.199 10.828-4 16-5.342 4.905-9.734 6.137-17 6 .28-6.56 2.693-11.064 7-16 4.218-3.358 8.49-6 14-6m65-28c2 .063 2 .063 4 1 2.84 5.74 3.159 12.23 1.277 18.352-1.95 4.215-4.195 7.24-8.277 9.648l-3-1c-2.386-7.16-1.968-14.942 1.375-21.687 1.4-2.5 2.594-4.282 4.625-6.313M355 374c6.1.313 10.528 3.03 15 7 3.718 4.76 6.43 8.822 6 15-6.113.422-9.147.114-14-4-6.86-7.069-6.86-7.069-7.098-12.043zm26-79c4.417 1.735 6.532 4.801 9.105 8.656 1.315 3.445 1.144 6.837 1.082 10.469l-.001 2.207c-.045 5.387-.045 5.387-1.186 7.668-3.835-.22-4.942-.94-7.687-3.75-4.282-6.017-5.096-10.946-4.313-18.25.781-2.547 1.76-4.625 3-7" fill="#F7F7F7"/><path d="M556 232c-.838 5.873-3.512 9.228-8 13-5.823 3.065-11.444 4.583-18 4 1.435-7.055 3.14-10.748 8.938-15.312 5.21-2.846 11.318-1.999 17.062-1.688m-27-5c-1.885 7.291-4.497 13.043-10.957 17.285-3.933 2.098-7.57 3.268-12.043 3.715-.51-5.709-.06-9.408 3.254-14.168 5.441-5.709 12.101-7.54 19.746-6.832" fill="#F8F8F8"/><path d="M628 454c4.594 1.181 6.392 3.424 8.984 7.148 2.262 4.124 2.465 8.217 2.016 12.852-1.445 3.462-3.16 6.733-5 10h-2c-1.254-1.645-1.254-1.645-2.562-3.812l-1.317-2.145c-2.116-3.856-2.284-7.024-2.308-11.356l-.043-3.363c.237-3.42 1.009-6.134 2.23-9.324" fill="#F6F6F6"/><path d="M409.324 476.54c3.602 1.42 6.168 3.551 8.676 6.46-5.623 4.757-10.56 5.78-17.863 5.492-4.487-.704-7.91-2.273-11.137-5.492-1.207-2.172-1.207-2.172-2-4 6.948-3.998 14.537-4.267 22.324-2.46m172.071-234.517L583 243c-3.232 5.79-7.501 9.469-13.86 11.633-2.82.484-5.53.46-8.39.43l-3.266-.028L555 255l-1-3c5.802-9.972 16.032-14.833 27.395-9.977" fill="#F7F7F7"/><path d="M473 231c.477 8.618-.395 14.978-5.812 21.875-2.722 2.995-5.175 4.265-9.188 5.125-2.094-4.188-1.419-9.439-1-14 2.356-5.088 6.459-8.765 11-12 3-1 3-1 5-1" fill="#F8F8F8"/><path d="M434.375 495.5 437 497c-1.807 3.826-3.914 6.297-7.715 8.266-5.742 1.845-12.334 2.007-17.902-.395-1.91-1.193-3.665-2.418-5.383-3.871 7.277-7.9 18.274-9.868 28.375-5.5" fill="#F9F9F9"/><path d="M613 474c3.45.602 3.906.882 6.25 3.813 2.66 5.119 2.526 10.579 1.75 16.187-1.042 2.77-2.237 4.563-4 7l-2 3c-3-1-3-1-4.66-3.602-2.562-6.497-2.617-14.5-.438-21.152C611 477.063 611 477.063 613 474" fill="#F8F8F8"/><path d="M621.563 271.75c3.02 1.582 4.115 3.119 5.437 6.25-7.314 4.776-14.415 4.99-23 4-2.881-1.035-4.567-2.1-7-4 1.185-3.687 3.429-5.458 6.813-7.234 5.89-2.062 12.116-1.597 17.75.984" fill="#FAFAFA"/></svg>